{"title":"Rustom Hindi 2016 DesiSCR x264-Hindify.mp4","uid":15577807,"size":692430572,"categoryP":"video","categoryS":"movies","magnet":"?xt=urn:btih:ee6ed50531e95a32e50ae63b847a972423079c1c&amp;dn=Rustom+Hindi+2016+DesiSCR+x264-Hindify.mp4&amp;tr=udp%3A%2F%2Ftracker.leechers-paradise.org%3A6969&amp;tr=udp%3A%2F%2Fzer0day.ch%3A1337&amp;tr=udp%3A%2F%2Fopen.demonii.com%3A1337&amp;tr=udp%3A%2F%2Ftracker.coppersurfer.tk%3A6969&amp;tr=udp%3A%2F%2Fexodus.desync.com%3A6969","seeders":18,"leechers":1,"uploader":null,"files":1,"time":1471364356,"description":"Rustom Hindi 2016 DesiSCR x264-Hindify.mp4\r\n\r\nScreens:\r\n \nhttp://extraimago.com/images/2016/08/16/vlcsnap-2016-08-16-11h17m33s524.png \nhttp://extraimago.com/images/2016/08/16/vlcsnap-2016-08-16-11h17m30s810.png \nhttp://extraimago.com/images/2016/08/16/vlcsnap-2016-08-16-11h17m28s104.png \nhttp://extraimago.com/images/2016/08/16/vlcsnap-2016-08-16-11h17m24s900.png \nhttp://extraimago.com/images/2016/08/16/vlcsnap-2016-08-16-11h17m21s937.png\r\n\r\nInfo:\r\n\r\nFormat : MPEG-4\r\nFormat profile : Base Media / Version 2\r\nCodec ID : mp42 (isom/iso2/avc1/mp41)\r\nFile size : 660 MiB\r\nDuration : 2 h 27 min\r\nOverall bit rate mode : Variable\r\nOverall bit rate : 625 kb/s\r\nEncoded date : UTC 2016-08-12 14:41:02\r\nTagged date : UTC 2016-08-12 14:41:02\r\nWriting application : HandBrake 0.10.5 2016021100\r\n\r\nVideo\r\nID : 1\r\nFormat : AVC\r\nFormat/Info : Advanced Video Codec\r\nFormat profile :   \r\nFormat settings, CABAC : Yes\r\nFormat settings, ReFrames : 4 frames\r\nCodec ID : avc1\r\nCodec ID/Info : Advanced Video Coding\r\nDuration : 2 h 27 min\r\nBit rate : 552 kb/s\r\nWidth : 640 pixels\r\nHeight : 272 pixels\r\nDisplay aspect ratio : 2.35:1\r\nFrame rate mode : Constant\r\nFrame rate : 25.000 FPS\r\nColor space : YUV\r\nChroma subsampling : 4:2:0\r\nBit depth : 8 bits\r\nScan type : Progressive\r\nBits/(Pixel*Frame) : 0.127\r\nStream size : 587 MiB (89%)\r\nWriting library : x264 core 142 r2491 24e4fed\r\nEncoding settings : cabac=1 / ref=3 / deblock=1:0:0 / analyse=0x3:0x113 / me=hex / subme=7 / psy=1 / psy_rd=1.00:0.00 / mixed_ref=1 / me_range=16 / chroma_me=1 / trellis=1 / 8x8dct=1 / cqm=0 / deadzone=21,11 / fast_pskip=1 / chroma_qp_offset=-2 / threads=12 / lookahead_threads=2 / sliced_threads=0 / nr=0 / decimate=1 / interlaced=0 / bluray_compat=0 / constrained_intra=0 / bframes=3 / b_pyramid=2 / b_adapt=1 / b_bias=0 / direct=1 / weightb=1 / open_gop=0 / weightp=2 / keyint=250 / keyint_min=25 / scenecut=40 / intra_refresh=0 / rc_lookahead=40 / rc=abr / mbtree=1 / bitrate=552 / ratetol=1.0 / qcomp=0.60 / qpmin=0 / qpmax=69 / qpstep=4 / vbv_maxrate=17500 / vbv_bufsize=17500 / nal_hrd=none / filler=0 / ip_ratio=1.40 / aq=1:1.00\r\nEncoded date : UTC 2016-08-12 14:41:02\r\nTagged date : UTC 2016-08-12 14:41:02\r\nColor range : Limited\r\nColor primaries : BT.601 PAL\r\nTransfer characteristics : BT.709\r\nMatrix coefficients : BT.601\r\n\r\nAudio\r\nID : 2\r\nFormat : AAC\r\nFormat/Info : Advanced Audio Codec\r\nFormat profile : LC\r\nCodec ID : 40\r\nDuration : 2 h 27 min\r\nBit rate mode : Variable\r\nBit rate : 64.4 kb/s\r\nChannel(s) : 2 channels\r\nChannel positions : Front: L R\r\nSampling rate : 32.0 kHz\r\nFrame rate : 31.250 FPS (1024 spf)\r\nCompression mode : Lossy\r\nStream size : 68.0 MiB (10%)\r\nTitle : Stereo / Stereo\r\nDefault : Yes\r\nAlternate group : 1\r\nEncoded date : UTC 2016-08-12 14:41:02\r\nTagged date : UTC 2016-08-12 14:41:02 \r\n \nhttp://tvmoviereviews.drupalgardens.com/content/rustom-review","torrent":{"xt":"urn:btih:ee6ed50531e95a32e50ae63b847a972423079c1c","amp;dn":"Rustom+Hindi+2016+DesiSCR+x264-Hindify.mp4","amp;tr":["udp%3A%2F%2Ftracker.leechers-paradise.org%3A6969","udp%3A%2F%2Fzer0day.ch%3A1337","udp%3A%2F%2Fopen.demonii.com%3A1337","udp%3A%2F%2Ftracker.coppersurfer.tk%3A6969","udp%3A%2F%2Fexodus.desync.com%3A6969"],"infoHash":"ee6ed50531e95a32e50ae63b847a972423079c1c","infoHashBuffer":{"type":"Buffer","data":[238,110,213,5,49,233,90,50,229,10,230,59,132,122,151,36,35,7,156,28]},"announce":[],"urlList":[]}}